<svg width="53" height="53" viewBox="0 0 53 53" fill="none" xmlns="http://www.w3.org/2000/svg">
<g filter="url(#filter0_i_538_560)">
<path d="M51.5 26.5C51.5 40.3071 40.3071 51.5 26.5 51.5C12.6929 51.5 1.5 40.3071 1.5 26.5C1.5 12.6929 12.6929 1.5 26.5 1.5C40.3071 1.5 51.5 12.6929 51.5 26.5Z" fill="#608EAA"/>
</g>
<path d="M26.5 0.75C40.7213 0.75 52.25 12.2787 52.25 26.5C52.25 40.7213 40.7213 52.25 26.5 52.25C12.2787 52.25 0.75 40.7213 0.75 26.5C0.750001 12.2787 12.2787 0.75 26.5 0.75Z" stroke="white" stroke-width="1.5"/>
<path d="M25.1582 23.9019C25.2245 24.0019 25.2627 24.1056 25.2627 24.2144C25.2627 24.8724 23.967 25.4057 22.3691 25.4058C20.7712 25.4058 19.4756 24.8724 19.4756 24.2144C19.4756 24.1059 19.5122 24.0017 19.5781 23.9019C19.9115 24.3098 21.0338 24.6118 22.3691 24.6118C23.7036 24.6118 24.824 24.3094 25.1582 23.9019Z" fill="#3D3D3D"/>
<path d="M33.7256 23.9023C33.7918 24.0024 33.8301 24.1062 33.8301 24.2148C33.8297 24.8727 32.5341 25.4062 30.9365 25.4062C29.3388 25.4062 28.0434 24.8727 28.043 24.2148C28.043 24.1065 28.0797 24.0021 28.1455 23.9023C28.4791 24.3102 29.6014 24.6113 30.9365 24.6113C32.2708 24.6113 33.3912 24.3098 33.7256 23.9023Z" fill="#3D3D3D"/>
<path d="M23.1885 29C23.0705 28.881 23.0049 28.7554 23.0049 28.623C23.0052 27.9651 24.5851 27.4316 26.5342 27.4316C28.4832 27.4317 30.0631 27.9651 30.0635 28.623C30.0635 28.7552 29.9985 28.8812 29.8809 29C29.4123 28.6194 28.0914 28.3438 26.5342 28.3438C24.9777 28.3438 23.6577 28.6197 23.1885 29Z" fill="#3D3D3D"/>
<ellipse cx="14.096" cy="27.3491" rx="2.8558" ry="1.46727" fill="#C53737"/>
<ellipse cx="38.972" cy="27.3491" rx="2.8558" ry="1.46727" fill="#C53737"/>
<defs>
<filter id="filter0_i_538_560" x="0" y="0" width="53" height="53" filterUnits="userSpaceOnUse" color-interpolation-filters="sRGB">
<feFlood flood-opacity="0" result="BackgroundImageFix"/>
<feBlend mode="normal" in="SourceGraphic" in2="BackgroundImageFix" result="shape"/>
<feColorMatrix in="SourceAlpha" type="matrix" values="0 0 0 0 0 0 0 0 0 0 0 0 0 0 0 0 0 0 127 0" result="hardAlpha"/>
<feOffset dx="5"/>
<feComposite in2="hardAlpha" operator="arithmetic" k2="-1" k3="1"/>
<feColorMatrix type="matrix" values="0 0 0 0 0.298039 0 0 0 0 0.478431 0 0 0 0 0.592157 0 0 0 1 0"/>
<feBlend mode="normal" in2="shape" result="effect1_innerShadow_538_560"/>
</filter>
</defs>
</svg>
