<svg width="53" height="53" viewBox="0 0 53 53" fill="none" xmlns="http://www.w3.org/2000/svg">
<g filter="url(#filter0_i_538_318)">
<path d="M51.5 26.5C51.5 40.3071 40.3071 51.5 26.5 51.5C12.6929 51.5 1.5 40.3071 1.5 26.5C1.5 12.6929 12.6929 1.5 26.5 1.5C40.3071 1.5 51.5 12.6929 51.5 26.5Z" fill="#6BCB77"/>
</g>
<path d="M26.5 0.75C40.7213 0.75 52.25 12.2787 52.25 26.5C52.25 40.7213 40.7213 52.25 26.5 52.25C12.2787 52.25 0.75 40.7213 0.75 26.5C0.750001 12.2787 12.2787 0.75 26.5 0.75Z" stroke="white" stroke-width="1.5"/>
<ellipse cx="23.2264" cy="24.73" rx="2.87383" ry="3.55766" fill="white"/>
<ellipse cx="23.8452" cy="24.7302" rx="1.23684" ry="2.03295" fill="#3D3D3D"/>
<ellipse cx="29.4832" cy="24.73" rx="2.87383" ry="3.55766" fill="white"/>
<ellipse cx="29.0103" cy="24.7302" rx="1.23684" ry="2.03295" fill="#3D3D3D"/>
<ellipse cx="14.5108" cy="27.4908" rx="2.76469" ry="1.42049" fill="#E42828"/>
<ellipse cx="38.5928" cy="27.4908" rx="2.76469" ry="1.42049" fill="#E42828"/>
<path d="M22.4014 30.4497C25.6026 32.6281 27.3972 32.6429 30.5981 30.4497" stroke="#3D3D3D" stroke-width="0.8" stroke-linecap="round"/>
<defs>
<filter id="filter0_i_538_318" x="0" y="0" width="53" height="53" filterUnits="userSpaceOnUse" color-interpolation-filters="sRGB">
<feFlood flood-opacity="0" result="BackgroundImageFix"/>
<feBlend mode="normal" in="SourceGraphic" in2="BackgroundImageFix" result="shape"/>
<feColorMatrix in="SourceAlpha" type="matrix" values="0 0 0 0 0 0 0 0 0 0 0 0 0 0 0 0 0 0 127 0" result="hardAlpha"/>
<feOffset dx="5"/>
<feComposite in2="hardAlpha" operator="arithmetic" k2="-1" k3="1"/>
<feColorMatrix type="matrix" values="0 0 0 0 0.254639 0 0 0 0 0.70787 0 0 0 0 0.311293 0 0 0 1 0"/>
<feBlend mode="normal" in2="shape" result="effect1_innerShadow_538_318"/>
</filter>
</defs>
</svg>
