<svg width="210" height="60" viewBox="0 0 210 60" fill="none" xmlns="http://www.w3.org/2000/svg">
<path d="M23.5951 46.8C20.3017 46.8 17.2251 46.215 14.3651 45.045C11.5051 43.8317 8.99175 42.1633 6.82508 40.04C4.70175 37.8733 3.03341 35.3817 1.82008 32.565C0.606745 29.7483 7.82199e-05 26.6933 7.82199e-05 23.4C7.82199e-05 20.1067 0.606745 17.0517 1.82008 14.235C3.03341 11.4183 4.70175 8.94832 6.82508 6.82499C8.99175 4.65833 11.5051 2.98999 14.3651 1.81999C17.2251 0.606658 20.3017 -8.58307e-06 23.5951 -8.58307e-06C25.7184 -8.58307e-06 27.7767 0.238324 29.7701 0.71499C31.7634 1.19166 33.5617 1.88499 35.1651 2.79499C35.7284 3.09832 36.1401 3.50999 36.4001 4.02999C36.6601 4.50666 36.7901 4.98333 36.7901 5.45999C36.7901 6.36999 36.4867 7.17166 35.8801 7.86499C35.3167 8.51499 34.6017 8.83999 33.7351 8.83999C33.4317 8.83999 33.1067 8.79666 32.7601 8.70999C32.4567 8.62333 32.1751 8.51499 31.9151 8.38499C30.7017 7.77833 29.4017 7.32332 28.0151 7.01999C26.6284 6.67333 25.1551 6.49999 23.5951 6.49999C20.4751 6.49999 17.6584 7.25833 15.1451 8.77499C12.6317 10.2483 10.6384 12.2633 9.16508 14.82C7.73508 17.3767 7.02008 20.2367 7.02008 23.4C7.02008 26.52 7.73508 29.38 9.16508 31.98C10.6384 34.5367 12.6317 36.5733 15.1451 38.09C17.6584 39.5633 20.4751 40.3 23.5951 40.3C25.1117 40.3 26.7151 40.1267 28.4051 39.78C30.0951 39.39 31.5251 38.8917 32.6951 38.285L32.1751 40.04V27.69L33.2151 28.6H24.7001C23.7467 28.6 22.9451 28.2967 22.2951 27.69C21.6884 27.0833 21.3851 26.3033 21.3851 25.35C21.3851 24.3967 21.6884 23.6167 22.2951 23.01C22.9451 22.4033 23.7467 22.1 24.7001 22.1H35.9451C36.8551 22.1 37.6134 22.425 38.2201 23.075C38.8701 23.6817 39.1951 24.4617 39.1951 25.415V39.845C39.1951 40.5383 39.0217 41.1233 38.6751 41.6C38.3284 42.0767 37.9384 42.4667 37.5051 42.77C35.5551 43.9833 33.3884 44.9583 31.0051 45.695C28.6651 46.4317 26.1951 46.8 23.5951 46.8ZM47.6639 46.15C46.7105 46.15 45.9305 45.8467 45.3239 45.24C44.7172 44.59 44.4139 43.7883 44.4139 42.835V15.275C44.4139 14.3217 44.7172 13.5417 45.3239 12.935C45.9305 12.285 46.7105 11.96 47.6639 11.96C48.5739 11.96 49.3322 12.285 49.9389 12.935C50.5889 13.5417 50.9139 14.3217 50.9139 15.275V22.555L50.2639 19.76C50.6105 18.5467 51.1305 17.42 51.8239 16.38C52.5605 15.34 53.4272 14.43 54.4239 13.65C55.4205 12.87 56.5255 12.2633 57.7389 11.83C58.9955 11.3967 60.2955 11.18 61.6389 11.18C62.7655 11.18 63.7405 11.4833 64.5639 12.09C65.3872 12.6967 65.7989 13.455 65.7989 14.365C65.7989 15.535 65.4955 16.4017 64.8889 16.965C64.2822 17.485 63.6105 17.745 62.8739 17.745C62.2239 17.745 61.5955 17.615 60.9889 17.355C60.3822 17.0517 59.6672 16.9 58.8439 16.9C57.9339 16.9 57.0022 17.1383 56.0489 17.615C55.0955 18.0917 54.2289 18.8067 53.4489 19.76C52.6689 20.67 52.0405 21.7533 51.5639 23.01C51.1305 24.2667 50.9139 25.675 50.9139 27.235V42.835C50.9139 43.7883 50.5889 44.59 49.9389 45.24C49.3322 45.8467 48.5739 46.15 47.6639 46.15ZM100.282 29.055C100.282 32.5217 99.5235 35.5983 98.0069 38.285C96.4902 40.9283 94.4319 43.0083 91.8319 44.525C89.2319 46.0417 86.3069 46.8 83.0569 46.8C79.8069 46.8 76.8819 46.0417 74.2819 44.525C71.6819 43.0083 69.6019 40.9283 68.0419 38.285C66.5252 35.5983 65.7669 32.5217 65.7669 29.055C65.7669 25.545 66.5252 22.4683 68.0419 19.825C69.6019 17.1383 71.6819 15.0367 74.2819 13.52C76.8819 11.96 79.8069 11.18 83.0569 11.18C86.3069 11.18 89.2319 11.96 91.8319 13.52C94.4319 15.0367 96.4902 17.1383 98.0069 19.825C99.5235 22.4683 100.282 25.545 100.282 29.055ZM93.7819 29.055C93.7819 26.6717 93.3052 24.6133 92.3519 22.88C91.3985 21.1033 90.0985 19.7167 88.4519 18.72C86.8485 17.68 85.0502 17.16 83.0569 17.16C81.0635 17.16 79.2435 17.68 77.5969 18.72C75.9502 19.7167 74.6502 21.1033 73.6969 22.88C72.7435 24.6133 72.2669 26.6717 72.2669 29.055C72.2669 31.3517 72.7435 33.3883 73.6969 35.165C74.6502 36.9417 75.9502 38.3283 77.5969 39.325C79.2435 40.3217 81.0635 40.82 83.0569 40.82C85.0502 40.82 86.8485 40.3217 88.4519 39.325C90.0985 38.3283 91.3985 36.9417 92.3519 35.165C93.3052 33.3883 93.7819 31.3517 93.7819 29.055ZM144.884 11.635C145.707 11.635 146.422 11.96 147.029 12.61C147.679 13.2167 148.004 14.0183 148.004 15.015C148.004 15.2317 147.982 15.4483 147.939 15.665C147.896 15.8817 147.831 16.0767 147.744 16.25L137.799 44.07C137.539 44.8067 137.084 45.37 136.434 45.76C135.784 46.1067 135.112 46.2367 134.419 46.15C133.162 46.0633 132.231 45.37 131.624 44.07L124.279 24.57L125.774 24.7L119.014 44.07C118.407 45.37 117.476 46.0633 116.219 46.15C115.569 46.2367 114.897 46.1067 114.204 45.76C113.554 45.37 113.099 44.8067 112.839 44.07L102.829 16.25C102.656 15.86 102.569 15.4483 102.569 15.015C102.569 14.105 102.851 13.325 103.414 12.675C104.021 11.9817 104.822 11.635 105.819 11.635C106.512 11.635 107.119 11.8083 107.639 12.155C108.202 12.5017 108.592 13.0217 108.809 13.715L117.129 37.18L115.634 37.05L122.394 19.305C122.957 17.9617 123.954 17.29 125.384 17.29C126.164 17.29 126.771 17.4633 127.204 17.81C127.637 18.1567 127.984 18.655 128.244 19.305L135.134 37.115L133.379 37.31L141.764 13.715C142.197 12.3283 143.237 11.635 144.884 11.635ZM173.724 40.17C174.591 40.17 175.306 40.4517 175.869 41.015C176.476 41.5783 176.779 42.2933 176.779 43.16C176.779 43.9833 176.476 44.6983 175.869 45.305C175.306 45.8683 174.591 46.15 173.724 46.15H152.729C151.819 46.15 151.083 45.825 150.519 45.175C149.956 44.4817 149.696 43.81 149.739 43.16C149.783 42.64 149.848 42.185 149.934 41.795C150.064 41.3617 150.346 40.885 150.779 40.365L168.134 17.355V18.135H153.639C152.773 18.135 152.036 17.8533 151.429 17.29C150.866 16.6833 150.584 15.9683 150.584 15.145C150.584 14.2783 150.866 13.5633 151.429 13C152.036 12.4367 152.773 12.155 153.639 12.155H173.659C174.483 12.155 175.176 12.48 175.739 13.13C176.346 13.7367 176.606 14.495 176.519 15.405C176.519 15.795 176.454 16.185 176.324 16.575C176.238 16.9217 175.999 17.3333 175.609 17.81L158.514 40.56L158.254 40.17H173.724ZM206.187 11.7C207.14 11.7 207.92 12.025 208.527 12.675C209.133 13.2817 209.437 14.0617 209.437 15.015V42.965C209.437 46.7783 208.7 49.8767 207.227 52.26C205.797 54.6433 203.847 56.3767 201.377 57.46C198.95 58.5867 196.198 59.15 193.122 59.15C191.562 59.15 190.002 58.9983 188.442 58.695C186.882 58.435 185.603 58.045 184.607 57.525C183.567 57.0483 182.83 56.4633 182.397 55.77C181.963 55.0767 181.898 54.3183 182.202 53.495C182.505 52.455 183.025 51.74 183.762 51.35C184.498 51.0033 185.257 50.9817 186.037 51.285C186.773 51.5883 187.748 51.9783 188.962 52.455C190.175 52.9317 191.562 53.17 193.122 53.17C195.245 53.17 197.043 52.8233 198.517 52.13C199.99 51.4367 201.095 50.3533 201.832 48.88C202.612 47.4067 203.002 45.5 203.002 43.16V38.675L204.042 40.235C203.348 41.665 202.438 42.8567 201.312 43.81C200.185 44.7633 198.842 45.5 197.282 46.02C195.765 46.54 194.075 46.8 192.212 46.8C189.828 46.8 187.77 46.28 186.037 45.24C184.347 44.1567 183.047 42.6833 182.137 40.82C181.227 38.9133 180.772 36.7467 180.772 34.32V15.015C180.772 14.0617 181.075 13.2817 181.682 12.675C182.288 12.025 183.068 11.7 184.022 11.7C184.932 11.7 185.69 12.025 186.297 12.675C186.947 13.2817 187.272 14.0617 187.272 15.015V32.565C187.272 35.425 187.9 37.5267 189.157 38.87C190.413 40.17 192.277 40.82 194.747 40.82C196.393 40.82 197.823 40.4733 199.037 39.78C200.25 39.0867 201.203 38.1333 201.897 36.92C202.59 35.6633 202.937 34.2117 202.937 32.565V15.015C202.937 14.0617 203.24 13.2817 203.847 12.675C204.497 12.025 205.277 11.7 206.187 11.7Z" fill="white"/>
</svg>
