<svg width="39" height="44" viewBox="0 0 39 44" fill="none" xmlns="http://www.w3.org/2000/svg">
<g filter="url(#filter0_i_180_3357)">
<path fill-rule="evenodd" clip-rule="evenodd" d="M14.5313 0.0522741C15.248 -0.219227 15.8355 0.623608 15.4281 1.27281C13.2565 4.73389 12.001 8.82826 12.001 13.2157C12.0011 25.642 22.0747 35.7157 34.501 35.7157C35.6493 35.7157 36.7774 35.6291 37.8794 35.4627C38.6372 35.3482 39.1768 36.2231 38.6428 36.7729C34.5541 40.9833 28.8325 43.5995 22.5 43.5995C10.0738 43.5993 2.04237e-05 33.5258 0 21.0995C0 11.4791 6.0383 3.26954 14.5313 0.0522741Z" fill="#FFD000"/>
</g>
<path d="M26.703 15.7388C26.863 15.7388 26.995 15.7908 27.099 15.8948C27.211 15.9988 27.267 16.1308 27.267 16.2908C27.267 16.4428 27.211 16.5748 27.099 16.6868C26.995 16.7908 26.863 16.8428 26.703 16.8428H22.827C22.659 16.8428 22.523 16.7828 22.419 16.6628C22.315 16.5348 22.267 16.4108 22.275 16.2908C22.283 16.1948 22.295 16.1108 22.311 16.0388C22.335 15.9588 22.387 15.8708 22.467 15.7748L25.671 11.5268V11.6708H22.995C22.835 11.6708 22.699 11.6188 22.587 11.5148C22.483 11.4028 22.431 11.2708 22.431 11.1188C22.431 10.9588 22.483 10.8268 22.587 10.7228C22.699 10.6188 22.835 10.5668 22.995 10.5668H26.691C26.843 10.5668 26.971 10.6268 27.075 10.7468C27.187 10.8588 27.235 10.9988 27.219 11.1668C27.219 11.2388 27.207 11.3108 27.183 11.3828C27.167 11.4468 27.123 11.5228 27.051 11.6108L23.895 15.8108L23.847 15.7388H26.703Z" fill="#004A78"/>
<path d="M35.7035 11.2388C35.8635 11.2388 35.9955 11.2908 36.0995 11.3948C36.2115 11.4988 36.2675 11.6308 36.2675 11.7908C36.2675 11.9428 36.2115 12.0748 36.0995 12.1868C35.9955 12.2908 35.8635 12.3428 35.7035 12.3428H31.8275C31.6595 12.3428 31.5235 12.2828 31.4195 12.1628C31.3155 12.0348 31.2675 11.9108 31.2755 11.7908C31.2835 11.6948 31.2955 11.6108 31.3115 11.5388C31.3355 11.4588 31.3875 11.3708 31.4675 11.2748L34.6715 7.02677V7.17077H31.9955C31.8355 7.17077 31.6995 7.11877 31.5875 7.01477C31.4835 6.90277 31.4315 6.77077 31.4315 6.61877C31.4315 6.45877 31.4835 6.32677 31.5875 6.22277C31.6995 6.11877 31.8355 6.06677 31.9955 6.06677H35.6915C35.8435 6.06677 35.9715 6.12677 36.0755 6.24677C36.1875 6.35877 36.2355 6.49877 36.2195 6.66677C36.2195 6.73877 36.2075 6.81077 36.1835 6.88277C36.1675 6.94677 36.1235 7.02277 36.0515 7.11077L32.8955 11.3108L32.8475 11.2388H35.7035Z" fill="#004A78"/>
<defs>
<filter id="filter0_i_180_3357" x="0" y="0" width="38.8574" height="43.5996" filterUnits="userSpaceOnUse" color-interpolation-filters="sRGB">
<feFlood flood-opacity="0" result="BackgroundImageFix"/>
<feBlend mode="normal" in="SourceGraphic" in2="BackgroundImageFix" result="shape"/>
<feColorMatrix in="SourceAlpha" type="matrix" values="0 0 0 0 0 0 0 0 0 0 0 0 0 0 0 0 0 0 127 0" result="hardAlpha"/>
<feOffset dx="2" dy="-1"/>
<feComposite in2="hardAlpha" operator="arithmetic" k2="-1" k3="1"/>
<feColorMatrix type="matrix" values="0 0 0 0 1 0 0 0 0 0.65844 0 0 0 0 0.108974 0 0 0 0.35 0"/>
<feBlend mode="normal" in2="shape" result="effect1_innerShadow_180_3357"/>
</filter>
</defs>
</svg>
