<svg width="59" height="59" viewBox="0 0 59 59" fill="none" xmlns="http://www.w3.org/2000/svg">
<g filter="url(#filter0_i_180_2915)">
<path d="M58.5 29.25C58.5 45.4043 45.4043 58.5 29.25 58.5C13.0957 58.5 0 45.4043 0 29.25C0 13.0957 13.0957 0 29.25 0C45.4043 0 58.5 13.0957 58.5 29.25Z" fill="#FFD51C"/>
</g>
<ellipse cx="25.4385" cy="25.4349" rx="3.36238" ry="4.16246" fill="white"/>
<ellipse cx="26.1629" cy="25.4357" rx="1.4471" ry="2.37855" fill="#3D3D3D"/>
<ellipse cx="32.7598" cy="25.4349" rx="3.36238" ry="4.16246" fill="white"/>
<ellipse cx="32.2059" cy="25.4357" rx="1.4471" ry="2.37855" fill="#3D3D3D"/>
<path d="M29.1748 33.6274C31.6091 33.6274 33.7751 34.0025 35.1611 34.5845C33.775 35.89 31.61 36.7319 29.1758 36.7319C26.7415 36.7318 24.5772 35.8893 23.1914 34.5835C24.5775 34.0021 26.7421 33.6275 29.1748 33.6274Z" fill="#E42828"/>
<path d="M36.7178 31.2188C36.7081 32.4868 36.1153 33.6523 35.1279 34.583C33.7419 34.0012 31.5764 33.626 29.1426 33.626C26.7085 33.626 24.5423 34.0011 23.1562 34.583C22.1691 33.6524 21.5771 32.4866 21.5674 31.2188H36.7178Z" fill="white"/>
<ellipse cx="15.0111" cy="28.6654" rx="3.23469" ry="1.66198" fill="#E42828"/>
<ellipse cx="43.1878" cy="28.6654" rx="3.23469" ry="1.66198" fill="#E42828"/>
<defs>
<filter id="filter0_i_180_2915" x="0" y="0" width="58.5" height="58.5" filterUnits="userSpaceOnUse" color-interpolation-filters="sRGB">
<feFlood flood-opacity="0" result="BackgroundImageFix"/>
<feBlend mode="normal" in="SourceGraphic" in2="BackgroundImageFix" result="shape"/>
<feColorMatrix in="SourceAlpha" type="matrix" values="0 0 0 0 0 0 0 0 0 0 0 0 0 0 0 0 0 0 127 0" result="hardAlpha"/>
<feOffset dx="5"/>
<feComposite in2="hardAlpha" operator="arithmetic" k2="-1" k3="1"/>
<feColorMatrix type="matrix" values="0 0 0 0 1 0 0 0 0 0.716667 0 0 0 0 0 0 0 0 0.6 0"/>
<feBlend mode="normal" in2="shape" result="effect1_innerShadow_180_2915"/>
</filter>
</defs>
</svg>
